<svg width="86" height="32" viewBox="0 0 86 32" fill="none" xmlns="http://www.w3.org/2000/svg">
<path d="M3.89547 8.71862L1.94774 10.6825L0 8.71862L1.94774 6.75477L3.89547 8.71862ZM8.64709 3.92769L11.9861 7.31587L13.9338 5.35202L10.5948 1.96385L8.64709 0L6.69935 1.96385L3.33897 5.35202L5.28671 7.31587L8.64709 3.92769ZM15.3464 6.75477L13.3987 8.71862L15.3464 10.6825L17.2942 8.71862L15.3464 6.75477ZM8.64709 13.488L5.30811 10.1214L3.33897 12.0852L6.67795 15.4518L8.62568 17.4157L10.5734 15.4518L13.9338 12.0852L11.9861 10.1214L8.64709 13.488ZM8.64709 10.6825L10.5948 8.71862L8.64709 6.75477L6.69935 8.71862L8.64709 10.6825ZM29.2588 10.8767V10.8551C29.2588 9.58185 28.5739 8.93442 27.4823 8.50281C28.1672 8.11436 28.7237 7.5101 28.7237 6.43106V6.40948C28.7237 4.89883 27.5251 3.92769 25.5988 3.92769H21.1896V13.488H25.7058C27.8462 13.488 29.2588 12.6247 29.2588 10.8767ZM26.6476 6.79793C26.6476 7.5101 26.0697 7.81223 25.1493 7.81223H23.223V5.78364H25.2778C26.1553 5.78364 26.6476 6.12893 26.6476 6.77635V6.79793ZM27.1827 10.6177C27.1827 11.3299 26.6262 11.6536 25.7058 11.6536H23.223V9.56027H25.6416C26.7118 9.56027 27.1827 9.94872 27.1827 10.5961V10.6177ZM33.6252 13.488V3.92769H31.549V13.488H33.6252ZM44.8407 13.488V3.92769H42.786V9.81923L38.334 3.92769H36.4077V13.488H38.4624V7.42377L43.0642 13.5095H44.8407V13.488ZM56.3987 13.488L52.332 3.86295H50.4057L46.339 13.488H48.4579L49.3355 11.3515H53.338L54.2155 13.488H56.3987ZM52.6103 9.49552H50.0846L51.3474 6.3879L52.6103 9.49552ZM66.33 13.488V3.92769H64.2753V9.81923L59.8233 3.92769H57.897V13.488H59.9517V7.42377L64.5535 13.5095H66.33V13.488ZM77.1175 11.9557L75.7904 10.5961C75.0413 11.2867 74.3778 11.7183 73.3076 11.7183C71.6809 11.7183 70.5679 10.3588 70.5679 8.71862V8.69704C70.5679 7.0569 71.7237 5.71889 73.3076 5.71889C74.2494 5.71889 74.9985 6.12893 75.7262 6.79793L77.0533 5.24412C76.1757 4.35931 75.1055 3.77663 73.3076 3.77663C70.3967 3.77663 68.3634 5.99944 68.3634 8.71862V8.7402C68.3634 11.481 70.4395 13.6606 73.222 13.6606C75.0413 13.6606 76.1329 13.0132 77.1175 11.9557ZM86 13.488V11.6104H80.8631V9.60343H85.3365V7.7259H80.8631V5.78364H85.9358V3.90611H78.787V13.4664H86V13.488Z" fill="#F0B90B"/>
<path d="M32.1073 22.2568C32.1073 19.336 30.0356 17.4568 26.757 17.4568H21.2054V31.7548H23.6795V27.159H26.4754C29.573 27.159 32.1073 25.4841 32.1073 22.2568ZM29.5931 22.3181C29.5931 23.8501 28.4264 24.8918 26.5558 24.8918H23.6795V19.7445H26.5558C28.4063 19.7445 29.5931 20.6228 29.5931 22.3181Z" fill="#1E2026"/>
<path d="M48.7412 24.5854C48.7412 20.5411 45.724 17.2117 41.3995 17.2117C37.0749 17.2117 34.0176 20.5819 34.0176 24.6262C34.0176 28.6705 37.0347 32 41.3593 32C45.6838 32 48.7412 28.6297 48.7412 24.5854ZM46.1464 24.6262C46.1464 27.4246 44.1954 29.6918 41.3995 29.6918C38.6036 29.6918 36.6123 27.3837 36.6123 24.5854C36.6123 21.7871 38.5634 19.5198 41.3593 19.5198C44.1551 19.5198 46.1464 21.8279 46.1464 24.6262Z" fill="#1E2026"/>
<path d="M65.8304 24.5854C65.8304 20.5411 62.8133 17.2117 58.4887 17.2117C54.1641 17.2117 51.1068 20.5819 51.1068 24.6262C51.1068 28.6705 54.1239 32 58.4485 32C62.773 32 65.8304 28.6297 65.8304 24.5854ZM63.2357 24.6262C63.2357 27.4246 61.2846 29.6918 58.4887 29.6918C55.6928 29.6918 53.7015 27.3837 53.7015 24.5854C53.7015 21.7871 55.6526 19.5198 58.4485 19.5198C61.2443 19.5198 63.2357 21.8279 63.2357 24.6262Z" fill="#1E2026"/>
<path d="M68.8195 31.7548H78.6956V29.4672H71.2936V17.4568H68.8195V31.7548Z" fill="#1E2026"/>
</svg>
