<?xml version="1.0" encoding="UTF-8"?>
<svg width="123px" height="28px" viewBox="0 0 123 28" version="1.1" xmlns="http://www.w3.org/2000/svg" xmlns:xlink="http://www.w3.org/1999/xlink">
    <title>编组</title>
    <defs>
        <polygon id="path-1" points="0 28 122.666667 28 122.666667 0 0 0"></polygon>
    </defs>
    <g id="页面-1" stroke="none" stroke-width="1" fill="none" fill-rule="evenodd">
        <g id="首页" transform="translate(-125.000000, -34.000000)">
            <g id="编组" transform="translate(125.000000, 34.000000)">
                <polygon id="Fill-1" fill="#FEFEFE" points="0 0 0 18.6666667 9.33333333 18.6666667 9.33333333 9.33333333 18.6666667 9.33333333 18.6666667 0"></polygon>
                <polygon id="Fill-2" fill="#FEFEFE" points="18.6663705 9.33333333 18.6663705 18.6666667 9.33333333 18.6666667 9.33333333 28 28 28 28 9.33333333"></polygon>
                <polygon id="Fill-3" fill="#FEFEFE" points="100 24 104 24 104 9.33333333 100 9.33333333"></polygon>
                <g>
                    <path d="M104.084954,6.18947057 C104.084954,7.40181484 103.105914,8.38495674 101.898628,8.38495674 C100.691341,8.38495674 99.7128909,7.40181484 99.7128909,6.18947057 C99.7128909,4.9771263 100.691341,3.99398439 101.898628,3.99398439 C103.105914,3.99398439 104.084954,4.9771263 104.084954,6.18947057" id="Fill-4" fill="#FEFEFE"></path>
                    <path d="M107.658156,9.47351989 L111.761869,9.47351989 L111.761869,11.5505552 C111.995423,11.2413986 112.251978,10.9452715 112.530946,10.6633585 C112.809913,10.3814455 113.120729,10.1315143 113.462804,9.91297248 C113.804288,9.6944307 114.182339,9.52149248 114.596957,9.39356558 C115.010395,9.26623094 115.478093,9.20226749 116.000641,9.20226749 C117.566516,9.20226749 118.776751,9.6814011 119.631937,10.6390761 C120.486533,11.5973433 120.914715,12.9168856 120.914715,14.5977029 L120.914715,24.0056603 L116.810414,24.0056603 L116.810414,15.9190219 C116.810414,14.9453561 116.594553,14.2103687 116.162831,13.7146519 C115.73052,13.2195275 115.118915,12.9707807 114.326836,12.9707807 C113.534757,12.9707807 112.909587,13.2195275 112.450146,13.7146519 C111.991294,14.2103687 111.761869,14.9453561 111.761869,15.9190219 L111.761869,24.0056603 L107.658156,24.0056603 L107.658156,9.47351989 Z" id="Fill-6" fill="#FEFEFE"></path>
                    <mask id="mask-2" fill="white">
                        <use xlink:href="#path-1"></use>
                    </mask>
                    <g id="Clip-9"></g>
                    <polygon id="Fill-8" fill="#FEFEFE" mask="url(#mask-2)" points="103.969357 24.0058379 105.721603 24.0058379 105.721603 22.2462508 103.969357 22.2462508"></polygon>
                    <polygon id="Fill-10" fill="#FEFEFE" mask="url(#mask-2)" points="120.914421 24.0058379 122.666667 24.0058379 122.666667 22.2462508 120.914421 22.2462508"></polygon>
                    <path d="M62.9221505,20.4677116 C63.5142929,20.4677116 64.0386103,20.3640671 64.4956923,20.1567781 C64.9527744,19.9500814 65.3426211,19.6663917 65.6658224,19.3063012 C65.9884338,18.9462106 66.2349633,18.5274869 66.4054106,18.0507223 C66.575858,17.5739577 66.6607868,17.0646192 66.6607868,16.5244834 L66.6607868,16.4705882 C66.6607868,15.9304524 66.5711397,15.4217061 66.3918456,14.9443493 C66.2125515,14.4675847 65.9518673,14.0447152 65.6115623,13.6751486 C65.2706676,13.3061742 64.8678456,13.0136007 64.401327,12.7974279 C63.9348084,12.5818474 63.4240561,12.4734649 62.8684803,12.4734649 C62.2775174,12.4734649 61.7526103,12.5771094 61.2955282,12.7838061 C60.8384462,12.991095 60.4480096,13.2747848 60.1253982,13.6348753 C59.8021969,13.9949658 59.5556675,14.4136895 59.3852202,14.8904541 C59.2153626,15.367811 59.1304338,15.8765573 59.1304338,16.4166931 L59.1304338,16.4705882 C59.1304338,17.010724 59.2194911,17.5194704 59.399375,17.996235 C59.5786691,18.4735918 59.8381737,18.8970535 60.1790685,19.2660279 C60.5193734,19.6350022 60.9186567,19.9275758 61.3763285,20.1437485 C61.8334106,20.3593291 62.3488812,20.4677116 62.9221505,20.4677116 M62.8684803,24.0058379 C61.7567388,24.0058379 60.7257976,23.8115786 59.7756567,23.4248366 C58.8255158,23.0380946 58.0045375,22.5062504 57.3150808,21.8316729 C56.6244446,21.1565032 56.081844,20.3640671 55.6878687,19.454957 C55.2933037,18.5458468 55.0963161,17.5692197 55.0963161,16.5244834 L55.0963161,16.4705882 C55.0963161,15.4264441 55.2933037,14.449817 55.6878687,13.5401146 C56.081844,12.6315968 56.6291629,11.8344227 57.3280561,11.1503691 C58.027539,10.4663155 58.8520561,9.92558749 59.8021969,9.52996171 C60.7529276,9.13374368 61.7927155,8.93533854 62.9221505,8.93533854 C64.033892,8.93533854 65.0648332,9.12900565 66.0155639,9.51633987 C66.9657047,9.90367409 67.7855035,10.4343338 68.4767295,11.1095036 C69.1661862,11.7846733 69.7087868,12.5771094 70.1033518,13.4862195 C70.4973271,14.3959219 70.6949045,15.372549 70.6949045,16.4166931 L70.6949045,16.4705882 C70.6949045,17.5147323 70.4973271,18.4919517 70.1033518,19.4010618 C69.7087868,20.310172 69.1620577,21.1067538 68.4625747,21.7908074 C67.7636815,22.4754532 66.9385747,23.015589 65.9884338,23.4112148 C65.0377032,23.8074328 63.998505,24.0058379 62.8684803,24.0058379" id="Fill-11" fill="#FEFEFE" mask="url(#mask-2)"></path>
                    <path d="M80.4573513,20.4677116 C81.0494937,20.4677116 81.5738111,20.3640671 82.0308931,20.1567781 C82.4879752,19.9500814 82.8778219,19.6663917 83.2010231,19.3063012 C83.5236346,18.9462106 83.770164,18.5274869 83.9406114,18.0507223 C84.1110588,17.5739577 84.1959876,17.0646192 84.1959876,16.5244834 L84.1959876,16.4705882 C84.1959876,15.9304524 84.1063405,15.4217061 83.9270464,14.9443493 C83.7477523,14.4675847 83.487068,14.0447152 83.1467631,13.6751486 C82.8058683,13.3061742 82.4030464,13.0136007 81.9365278,12.7974279 C81.4700092,12.5818474 80.9592569,12.4734649 80.403681,12.4734649 C79.8127182,12.4734649 79.287811,12.5771094 78.830729,12.7838061 C78.3736469,12.991095 77.9832104,13.2747848 77.660599,13.6348753 C77.3373977,13.9949658 77.0908683,14.4136895 76.9204209,14.8904541 C76.7505633,15.367811 76.6656345,15.8765573 76.6656345,16.4166931 L76.6656345,16.4705882 C76.6656345,17.010724 76.7546918,17.5194704 76.9345757,17.996235 C77.1138698,18.4735918 77.3733745,18.8970535 77.7142692,19.2660279 C78.0545742,19.6350022 78.4538575,19.9275758 78.9115293,20.1437485 C79.3686113,20.3593291 79.8840819,20.4677116 80.4573513,20.4677116 M80.403681,24.0058379 C79.2919395,24.0058379 78.2609983,23.8115786 77.3108575,23.4248366 C76.3607166,23.0380946 75.5397383,22.5062504 74.8502816,21.8316729 C74.1596454,21.1565032 73.6170447,20.3640671 73.2230695,19.454957 C72.8285045,18.5458468 72.6315169,17.5692197 72.6315169,16.5244834 L72.6315169,16.4705882 C72.6315169,15.4264441 72.8285045,14.449817 73.2230695,13.5401146 C73.6170447,12.6315968 74.1643636,11.8344227 74.8632568,11.1503691 C75.5627398,10.4663155 76.3872568,9.92558749 77.3373977,9.52996171 C78.2881284,9.13374368 79.3279163,8.93533854 80.4573513,8.93533854 C81.5690928,8.93533854 82.600034,9.12900565 83.5507646,9.51633987 C84.5009055,9.90367409 85.3207043,10.4343338 86.0119303,11.1095036 C86.701387,11.7846733 87.2439876,12.5771094 87.6385526,13.4862195 C88.0325278,14.3959219 88.2301052,15.372549 88.2301052,16.4166931 L88.2301052,16.4705882 C88.2301052,17.5147323 88.0325278,18.4919517 87.6385526,19.4010618 C87.2439876,20.310172 86.6972585,21.1067538 85.9977755,21.7908074 C85.2988823,22.4754532 84.4737755,23.015589 83.5236346,23.4112148 C82.5729039,23.8074328 81.5337058,24.0058379 80.403681,24.0058379" id="Fill-12" fill="#FEFEFE" mask="url(#mask-2)"></path>
                    <path d="M48.9644572,11.7712291 C48.9644572,12.5814328 48.6772328,13.2613406 48.1033736,13.8103602 C47.5295145,14.3593798 46.722691,14.6341858 45.6834928,14.6341858 L42.4019386,14.6341858 L42.4019386,8.85437739 L45.6021027,8.85437739 C46.6424804,8.85437739 47.462869,9.09779385 48.0632684,9.58403452 C48.6636677,10.0696829 48.9644572,10.7815724 48.9644572,11.717334 L48.9644572,11.7712291 Z M52.6623984,8.97638175 C52.3309402,8.17506187 51.8555749,7.48686253 51.237482,6.91000698 C50.6182096,6.33374368 49.8656461,5.88836855 48.9774325,5.57328934 C48.0903984,5.25821012 47.0812792,5.10067052 45.952434,5.10067052 L38.2598906,5.10067052 L38.2598906,22.2458362 L36.5076444,22.2458362 L36.5076444,24.0054234 L38.2598906,24.0054234 L42.4019386,24.0054234 L42.4019386,18.3339975 L45.5490222,18.3339975 C46.6065036,18.3339975 47.5967498,18.1948178 48.5203504,17.9152738 C49.443951,17.6363221 50.2507746,17.2175984 50.9414108,16.659695 C51.6308675,16.1017916 52.1734681,15.4082619 52.5686229,14.5796984 C52.9625981,13.7523193 53.1595857,12.7887218 53.1595857,11.6900903 L53.1595857,11.6361952 C53.1595857,10.6637139 52.9938566,9.77770163 52.6623984,8.97638175 L52.6623984,8.97638175 Z" id="Fill-13" fill="#FEFEFE" mask="url(#mask-2)"></path>
                    <polygon id="Fill-14" fill="#FEFEFE" mask="url(#mask-2)" points="91.9190817 4.2904076 91.9190817 22.245777 90.1668356 22.245777 90.1668356 24.0053641 91.9190817 24.0053641 96.0074595 24.0053641 96.0074595 4.2904076"></polygon>
                </g>
            </g>
        </g>
    </g>
</svg>