<svg xmlns="http://www.w3.org/2000/svg" viewBox="0 0 220 72" role="img" aria-labelledby="title">
    <title id="title">Cloudflare</title>
    <path d="M28 46h67c6.8 0 12.2-5.2 12.2-11.7S101.8 22.6 95 22.6c-1.3 0-2.6.2-3.8.6C87.9 16.5 80.9 12 72.8 12c-10.7 0-19.7 7.2-22.4 17-2.5-1.6-5.5-2.5-8.7-2.5-8.7 0-15.7 6.6-15.7 14.8 0 1.6.3 3.2.8 4.7Z" fill="#F38020"/>
    <path d="M47 54h43.5c5.1 0 9.2-3.8 9.2-8.6 0-4.7-4.1-8.5-9.2-8.5H74.4C71.3 42.9 65 47 57.8 47H47v7Z" fill="#F9A01B"/>
    <text x="119" y="43" fill="#F8FAFC" font-family="Arial, Helvetica, sans-serif" font-size="21" font-weight="800">Cloudflare</text>
</svg>
