<svg xmlns="http://www.w3.org/2000/svg" viewBox="0 0 220 72" role="img" aria-labelledby="title">
    <title id="title">GitHub</title>
    <circle cx="47" cy="36" r="24" fill="#F8FAFC"/>
    <path d="M47 19.5c-9.5 0-17.2 7.7-17.2 17.2 0 7.6 4.9 14 11.7 16.3.9.2 1.2-.4 1.2-.8v-3.1c-4.8 1-5.8-2.1-5.8-2.1-.8-2-1.9-2.6-1.9-2.6-1.6-1.1.1-1 .1-1 1.7.1 2.6 1.8 2.6 1.8 1.5 2.6 4 1.8 5 1.4.1-1.1.6-1.8 1.1-2.2-3.8-.4-7.8-1.9-7.8-8.5 0-1.9.7-3.4 1.8-4.6-.2-.4-.8-2.2.2-4.5 0 0 1.4-.5 4.7 1.8 1.4-.4 2.8-.6 4.3-.6 1.5 0 2.9.2 4.3.6 3.3-2.3 4.7-1.8 4.7-1.8 1 2.3.4 4.1.2 4.5 1.1 1.2 1.8 2.7 1.8 4.6 0 6.6-4 8.1-7.8 8.5.6.5 1.2 1.6 1.2 3.2v4.6c0 .5.3 1 1.2.8 6.8-2.3 11.7-8.7 11.7-16.3 0-9.5-7.7-17.2-17.2-17.2Z" fill="#111827"/>
    <text x="86" y="46" fill="#F8FAFC" font-family="Arial, Helvetica, sans-serif" font-size="30" font-weight="800">GitHub</text>
</svg>
